<?xml version="1.0" encoding="UTF-8"?>
<!-- Generated by Pixelmator Pro 3.8 -->
<svg width="512" height="512" viewBox="0 0 512 512" xmlns="http://www.w3.org/2000/svg">
    <path id="Rectangle" fill="#ffffff" fill-rule="evenodd" stroke="none" d="M 206.7267 335.01709 C 205.215561 339.168915 207.356262 343.759644 211.508087 345.270813 C 215.659912 346.781921 220.250641 344.641235 221.761795 340.489441 L 281.273285 176.98291 C 282.784424 172.831085 280.643738 168.240326 276.491913 166.729187 C 272.340088 165.218048 267.749359 167.358765 266.23822 171.51059 Z"/>
    <path id="Path" fill="#ffffff" stroke="none" d="M 195.953537 233.342804 C 199.310638 235.452728 202.692169 234.890076 204.769409 231.619019 L 217.87384 211.004883 C 219.79805 207.913269 218.88768 204.489777 215.590393 202.412598 L 210.621872 199.285706 C 207.784317 197.375916 206.083054 197.437927 203.618073 198.233429 L 197.547043 200.279053 L 192.53418 197.193939 L 192.663483 189.277954 C 192.787552 184.818146 190.260834 180.922577 184.915268 177.518005 L 168.279602 167.064636 C 150.166504 155.792053 118.329361 164.420166 108.46814 181.60321 C 106.338272 185.265503 107.368004 188.505096 109.593002 190.278931 C 111.404343 191.746979 114.311592 192.051514 116.526749 190.333221 C 125.403275 183.497284 135.523331 179.546936 145.307419 181.257416 L 142.967682 196.555115 C 142.12117 202.111115 143.890045 205.577972 148.022263 208.212219 L 162.969208 217.712677 C 166.375 219.836853 169.443069 220.090881 173.284088 218.338806 L 181.3452 214.773895 L 186.324051 217.973083 L 187.064926 224.229309 C 187.344498 227.02243 188.052246 228.532806 191.0215 230.379333 Z M 70.830215 335.081299 L 79.908966 340.894257 C 87.569 345.768005 95.414619 343.531738 100.077171 334.892151 L 159.243942 225.729919 C 158.423279 225.364838 157.673126 224.931488 156.909088 224.435913 L 143.509964 215.918335 C 142.812683 215.426514 142.105408 214.923889 141.463623 214.479462 L 67.805672 314.354248 C 61.827526 322.321014 63.154999 330.257019 70.830215 335.081299 Z"/>
    <path id="path1" fill="#ffffff" stroke="none" d="M 376.76947 180.023956 L 435.83432 239.08902 C 447.094482 250.362762 447.168152 261.947083 436.015228 273.100006 L 376.648651 332.527252 C 365.448608 343.666626 353.910858 343.606506 342.637115 332.332794 L 283.52533 273.220825 C 272.251617 261.947083 272.130798 250.422882 283.330841 239.209839 L 342.771484 179.842743 C 353.971558 168.64267 365.508698 168.763489 376.76947 180.023956 Z M 381.681488 227.152008 L 351.220581 275.922852 L 336.975494 257.895477 C 335.12796 255.464508 333.314148 254.682495 331.039368 254.682495 C 327.239716 254.682495 324.310822 257.726318 324.310822 261.478577 C 324.310822 263.34494 324.939941 265.045135 326.30423 266.730591 L 344.309601 288.690521 C 346.417603 291.361328 348.632294 292.565308 351.475769 292.565308 C 354.219055 292.565308 356.620544 291.213989 358.23941 288.637482 L 392.776642 234.947266 C 393.793243 233.25415 394.684875 231.453766 394.684875 229.753876 C 394.684875 225.893799 391.306305 223.312561 387.627747 223.312561 C 385.306976 223.312561 383.232574 224.637085 381.681488 227.152008 Z"/>
</svg>
