<?xml version="1.0" encoding="UTF-8"?>
<!-- Generated by Pixelmator Pro 3.8 -->
<svg width="512" height="512" viewBox="0 0 512 512" xmlns="http://www.w3.org/2000/svg">
    <path id="Rectangle" fill="#ffffff" fill-rule="evenodd" stroke="none" d="M 253 131 L 253 -6 L 257 -6 L 257 131 L 371 131 L 371 -6 L 375 -6 L 375 131 L 512 131 L 512 135 L 375 135 L 375 249 L 512 249 L 512 253 L 375 253 L 375 366 L 512 366 L 512 370 L 375 370 L 375 506 L 371 506 L 371 370 L 257 370 L 257 506 L 253 506 L 253 370 L 140 370 L 140 506 L 136 506 L 136 370 L 0 370 L 0 366 L 136 366 L 136 253 L 0 253 L 0 249 L 136 249 L 136 135 L 0 135 L 0 131 L 136 131 L 136 -6 L 140 -6 L 140 131 L 253 131 Z M 371 366 L 257 366 L 257 253 L 371 253 L 371 366 Z M 371 249 L 257 249 L 257 135 L 371 135 L 371 249 Z M 140 253 L 140 366 L 253 366 L 253 253 L 140 253 Z M 140 135 L 140 249 L 253 249 L 253 135 L 140 135 Z"/>
</svg>
